<mxfile host="app.diagrams.net" modified="2023-08-09T14:33:18.208Z" agent="Mozilla/5.0 (Windows NT 10.0; Win64; x64) AppleWebKit/537.36 (KHTML, like Gecko) Chrome/115.0.0.0 Safari/537.36 Edg/115.0.1901.200" version="21.6.7" etag="HiZ0MA1eA6v5cbIJlnWY" type="github">
  <diagram name="第 1 页" id="HJIR4bwcxVvA8xgZjpHY">
    <mxGraphModel>
      <root>
        <mxCell id="0" />
        <mxCell id="1" parent="0" />
      </root>
    </mxGraphModel>
  </diagram>
</mxfile>
